fd_8_states
version=1
nRows=43
nColumns=17
inDegrees=yes

# SIMM Motion File Header:
name fd_8_states
datacolumns 17
datarows 43
otherdata 1
range 0.907326 0.938644
endheader
time	/jointset/r_shoulder/r_shoulder_elev/value	/jointset/r_shoulder/r_shoulder_elev/speed	/jointset/r_elbow/r_elbow_flex/value	/jointset/r_elbow/r_elbow_flex/speed	/forceset/TRIlong/activation	/forceset/TRIlong/fiber_length	/forceset/TRIlat/activation	/forceset/TRIlat/fiber_length	/forceset/TRImed/activation	/forceset/TRImed/fiber_length	/forceset/BIClong/activation	/forceset/BIClong/fiber_length	/forceset/BICshort/activation	/forceset/BICshort/fiber_length	/forceset/BRA/activation	/forceset/BRA/fiber_length
      0.907326	      0.024386	     -0.061676	     78.900012	    265.452723	      0.020000	      0.165953	      0.208358	      0.099105	      0.202350	      0.094192	      0.885514	      0.104719	      0.213446	      0.105954	      0.020000	      0.073023
      0.908414	      0.024319	     -0.061048	     79.189566	    266.762831	      0.020000	      0.166057	      0.208273	      0.099203	      0.202251	      0.094290	      0.888626	      0.104482	      0.213534	      0.105720	      0.020000	      0.072917
      0.909319	      0.024266	     -0.056589	     79.431475	    267.857053	      0.020000	      0.166127	      0.208204	      0.099285	      0.202170	      0.094372	      0.891071	      0.104284	      0.213598	      0.105525	      0.020000	      0.072829
      0.909816	      0.024238	     -0.053898	     79.564867	    268.455284	      0.020000	      0.166173	      0.208166	      0.099330	      0.202126	      0.094417	      0.892362	      0.104175	      0.213631	      0.105418	      0.020000	      0.072781
      0.910014	      0.024228	     -0.052536	     79.617945	    268.692910	      0.020000	      0.166190	      0.208147	      0.099348	      0.202105	      0.094435	      0.892847	      0.104131	      0.213701	      0.105375	      0.020000	      0.072761
      0.910127	      0.024222	     -0.051696	     79.648290	    268.828613	      0.020000	      0.166200	      0.208082	      0.099359	      0.202037	      0.094445	      0.892888	      0.104106	      0.214471	      0.105351	      0.020000	      0.072750
      0.910361	      0.024210	     -0.049863	     79.711235	    269.109909	      0.020000	      0.166221	      0.207930	      0.099380	      0.201880	      0.094466	      0.892899	      0.104055	      0.216263	      0.105300	      0.020000	      0.072727
      0.911531	      0.024157	     -0.041286	     80.026950	    270.524559	      0.020000	      0.166325	      0.207184	      0.099488	      0.201107	      0.094574	      0.892950	      0.103797	      0.224423	      0.105038	      0.020000	      0.072611
      0.913364	      0.024088	     -0.034519	     80.525014	    272.788334	      0.020000	      0.166481	      0.206052	      0.099659	      0.199934	      0.094745	      0.893023	      0.103394	      0.234947	      0.104612	      0.020000	      0.072428
      0.914061	      0.024064	     -0.035830	     80.715282	    273.656896	      0.020000	      0.166567	      0.205633	      0.099725	      0.199500	      0.094810	      0.893049	      0.103240	      0.238343	      0.104446	      0.020000	      0.072358
      0.914757	      0.024039	     -0.035500	     80.906160	    274.538912	      0.020000	      0.166614	      0.205221	      0.099791	      0.199072	      0.094876	      0.893073	      0.103087	      0.241457	      0.104279	      0.020000	      0.072288
      0.915764	      0.024002	     -0.038895	     81.183163	    275.813035	      0.020000	      0.166704	      0.204635	      0.099886	      0.198465	      0.094971	      0.893108	      0.102864	      0.245510	      0.104037	      0.020000	      0.072185
      0.916812	      0.023959	     -0.043992	     81.472825	    277.140249	      0.020000	      0.166812	      0.204039	      0.099986	      0.197847	      0.095071	      0.893142	      0.102632	      0.249234	      0.103783	      0.020000	      0.072078
      0.917613	      0.023923	     -0.045615	     81.695393	    278.160707	      0.020000	      0.166872	      0.203592	      0.100063	      0.197383	      0.095147	      0.893166	      0.102454	      0.251782	      0.103587	      0.020000	      0.071995
      0.918415	      0.023885	     -0.048484	     81.918776	    279.172074	      0.020000	      0.166950	      0.203152	      0.100139	      0.196927	      0.095224	      0.893190	      0.102275	      0.254098	      0.103392	      0.020000	      0.071912
      0.919321	      0.023840	     -0.048967	     82.172288	    280.311846	      0.020000	      0.167028	      0.202664	      0.100227	      0.196420	      0.095311	      0.893216	      0.102072	      0.256465	      0.103171	      0.020000	      0.071818
      0.919894	      0.023812	     -0.049012	     82.333074	    281.024600	      0.020000	      0.167084	      0.202360	      0.100282	      0.196105	      0.095366	      0.893231	      0.101943	      0.257837	      0.103031	      0.020000	      0.071757
      0.920090	      0.023803	     -0.048663	     82.388112	    281.267399	      0.020000	      0.167102	      0.202251	      0.100301	      0.195994	      0.095385	      0.893366	      0.101899	      0.258245	      0.102983	      0.020000	      0.071737
      0.920285	      0.023793	     -0.048208	     82.443197	    281.509560	      0.020000	      0.167120	      0.202112	      0.100320	      0.195860	      0.095404	      0.894225	      0.101855	      0.258418	      0.102935	      0.020000	      0.071716
      0.920549	      0.023781	     -0.047454	     82.517378	    281.834575	      0.020000	      0.167144	      0.201923	      0.100346	      0.195680	      0.095430	      0.895387	      0.101796	      0.258639	      0.102871	      0.020000	      0.071688
      0.921866	      0.023721	     -0.042437	     82.889567	    283.454173	      0.020000	      0.167266	      0.200998	      0.100474	      0.194797	      0.095558	      0.900939	      0.101495	      0.259647	      0.102551	      0.020000	      0.071549
      0.922840	      0.023682	     -0.039102	     83.166324	    284.652014	      0.020000	      0.167364	      0.200331	      0.100570	      0.194158	      0.095653	      0.904786	      0.101269	      0.260302	      0.102315	      0.020000	      0.071445
      0.923566	      0.023655	     -0.035837	     83.373232	    285.550747	      0.020000	      0.167425	      0.199842	      0.100642	      0.193692	      0.095725	      0.907515	      0.101100	      0.260745	      0.102140	      0.020000	      0.071367
      0.924453	      0.023624	     -0.034077	     83.627247	    286.651300	      0.020000	      0.167521	      0.199255	      0.100730	      0.193130	      0.095812	      0.910706	      0.100891	      0.261240	      0.101926	      0.020000	      0.071271
      0.925237	      0.023598	     -0.030997	     83.852153	    287.634306	      0.020000	      0.167582	      0.198745	      0.100808	      0.192643	      0.095890	      0.913390	      0.100705	      0.261637	      0.101737	      0.020000	      0.071186
      0.926020	      0.023574	     -0.030841	     84.077830	    288.618033	      0.020000	      0.167667	      0.198244	      0.100886	      0.192164	      0.095967	      0.915960	      0.100518	      0.262001	      0.101549	      0.020000	      0.071101
      0.926803	      0.023551	     -0.028938	     84.304281	    289.612106	      0.020000	      0.167731	      0.197752	      0.100964	      0.191693	      0.096046	      0.918419	      0.100330	      0.262333	      0.101360	      0.020000	      0.071015
      0.927586	      0.023528	     -0.029263	     84.531511	    290.605901	      0.020000	      0.167821	      0.197267	      0.101042	      0.191229	      0.096124	      0.920773	      0.100141	      0.262638	      0.101171	      0.020000	      0.070928
      0.928370	      0.023506	     -0.026872	     84.759523	    291.611593	      0.020000	      0.167881	      0.196791	      0.101121	      0.190773	      0.096202	      0.923027	      0.099952	      0.262917	      0.100982	      0.020000	      0.070842
      0.929153	      0.023485	     -0.026996	     84.988323	    292.614116	      0.020000	      0.167975	      0.196322	      0.101201	      0.190324	      0.096281	      0.925185	      0.099761	      0.263172	      0.100792	      0.020000	      0.070755
      0.929936	      0.023466	     -0.023473	     85.217912	    293.628031	      0.020000	      0.168033	      0.195861	      0.101280	      0.189883	      0.096360	      0.927252	      0.099570	      0.263406	      0.100602	      0.020000	      0.070667
      0.930080	      0.023462	     -0.023312	     85.260274	    293.813527	      0.020000	      0.168048	      0.195781	      0.101295	      0.189805	      0.096375	      0.927637	      0.099534	      0.263706	      0.100567	      0.020000	      0.070651
      0.930373	      0.023455	     -0.022762	     85.346256	    294.190293	      0.020000	      0.168077	      0.195647	      0.101324	      0.189664	      0.096405	      0.928493	      0.099463	      0.265878	      0.100496	      0.020000	      0.070618
      0.931667	      0.023428	     -0.020331	     85.727988	    295.862286	      0.020000	      0.168225	      0.195066	      0.101456	      0.189049	      0.096536	      0.932121	      0.099144	      0.274603	      0.100172	      0.020000	      0.070472
      0.932265	      0.023418	     -0.016225	     85.905260	    296.649185	      0.020000	      0.168263	      0.194803	      0.101517	      0.188770	      0.096597	      0.933713	      0.098996	      0.278201	      0.100019	      0.020000	      0.070404
      0.933185	      0.023403	     -0.013885	     86.178623	    297.859549	      0.020000	      0.168349	      0.194404	      0.101611	      0.188348	      0.096691	      0.936062	      0.098767	      0.283256	      0.099781	      0.020000	      0.070299
      0.933870	      0.023394	     -0.014301	     86.382899	    298.765369	      0.020000	      0.168443	      0.194112	      0.101682	      0.188039	      0.096761	      0.937735	      0.098596	      0.286683	      0.099602	      0.020000	      0.070220
      0.934554	      0.023386	     -0.011338	     86.587801	    299.688563	      0.020000	      0.168487	      0.193824	      0.101752	      0.187734	      0.096832	      0.939348	      0.098425	      0.289850	      0.099421	      0.020000	      0.070141
      0.935433	      0.023375	     -0.012714	     86.851523	    300.872083	      0.020000	      0.168578	      0.193461	      0.101843	      0.187349	      0.096922	      0.941330	      0.098204	      0.293567	      0.099188	      0.020000	      0.070039
      0.936106	      0.023366	     -0.013575	     87.054318	    301.788114	      0.020000	      0.168640	      0.193187	      0.101913	      0.187059	      0.096992	      0.942787	      0.098035	      0.296175	      0.099009	      0.020000	      0.069961
      0.936952	      0.023354	     -0.016777	     87.310166	    302.943376	      0.020000	      0.168766	      0.192847	      0.102001	      0.186700	      0.097080	      0.944545	      0.097821	      0.299188	      0.098782	      0.020000	      0.069862
      0.937798	      0.023343	     -0.012218	     87.567004	    304.124874	      0.020000	      0.168810	      0.192514	      0.102090	      0.186346	      0.097168	      0.946224	      0.097606	      0.301932	      0.098555	      0.020000	      0.069762
      0.938644	      0.023332	     -0.015028	     87.824834	    305.292287	      0.020000	      0.168936	      0.192186	      0.102179	      0.185999	      0.097257	      0.947830	      0.097390	      0.304432	      0.098328	      0.020000	      0.069662
